<svg id="レイヤー_1" data-name="レイヤー 1" xmlns="http://www.w3.org/2000/svg" viewBox="0 0 300 46.02"><defs><style>.cls-1{fill:#fff;}</style></defs><title>corporate</title><path class="cls-1" d="M0,23A23,23,0,1,1,23,46,23,23,0,0,1,0,23M23,42.7A19.69,19.69,0,1,0,3.31,23,19.69,19.69,0,0,0,23,42.7"/><path class="cls-1" d="M24.28,37.1a7.67,7.67,0,1,0,1.56-12.65v7.68c0,3.13-1.08,4.38-1.56,5"/><path class="cls-1" d="M36.78,26.13a7.67,7.67,0,1,0-11.54-5.4l7.3,2.38a7,7,0,0,1,4.24,3"/><path class="cls-1" d="M30.22,10.85a7.67,7.67,0,1,0-12,8,7.55,7.55,0,0,0,3.27,1.36L26,14c1.83-2.53,3.44-2.91,4.18-3.1"/><path class="cls-1" d="M13.67,12.37a7.66,7.66,0,1,0,6.16,11.15l-4.51-6.21c-1.84-2.54-1.7-4.19-1.65-4.94"/><path class="cls-1" d="M10,28.59a7.65,7.65,0,1,0,12.5-2.42l-7.3,2.38c-3,1-4.5.32-5.2,0"/><path class="cls-1" d="M160.92,20.1c5.48-3.67,8.76-5.69,8.76-6.87a1.07,1.07,0,0,0-1.06-1.06l-22.8,0v2.09h15.36a25.17,25.17,0,0,1-5.61,4.43v2.73H144.45v2.1h11.12v3.13c0,2.8-1.82,6.26-4,8.34h6.33c.91-.9,3.06-3.45,3.06-8.34V23.55H172v-2.1H160.92Z"/><path class="cls-1" d="M78.13,12.58h-12a.89.89,0,0,0-.89.89V34.14a.89.89,0,0,0,.89.89h12a.89.89,0,0,0,.89-.89V13.47a.89.89,0,0,0-.89-.89M73.67,32.29H70.54v-17h3.13Z"/><path class="cls-1" d="M108.06,21.26h-23a.89.89,0,0,0-.89.89v8.93a.88.88,0,0,0,.89.88h2.63A9.53,9.53,0,0,1,84.17,35h6.52A11.71,11.71,0,0,0,93.26,32h6.6A11.51,11.51,0,0,0,102.43,35H109A9.53,9.53,0,0,1,105.43,32h2.63a.88.88,0,0,0,.89-.88V22.15a.89.89,0,0,0-.89-.89M89.52,23.35H103.6v.91H89.52Zm0,2.81H103.6v.91H89.52Zm0,2.8H103.6v.92H89.52Z"/><path class="cls-1" d="M108.78,12.58H98a.89.89,0,0,0-.89.89V19.2a.88.88,0,0,0,.89.88h10.81a.88.88,0,0,0,.89-.88V13.47a.89.89,0,0,0-.89-.89m-3.87,5.35h-3.07v-3.2h3.07Z"/><path class="cls-1" d="M63.39,15.19H58.06c.06-1.13.09-2.27.09-3.39H53.39c0,1.13,0,2.26-.08,3.39H49.8v2.55h3.36C52.53,26,50.69,33.34,48.89,35h5.35c1.11-1.31,3-8.92,3.66-17.28h1V35h5.35v-19a.89.89,0,0,0-.89-.89"/><path class="cls-1" d="M90.72,15.91h.82v4.63H96.1V14.25a.88.88,0,0,0-.88-.89H91.31a13.05,13.05,0,0,0,.1-1.56H87a9.85,9.85,0,0,1-.13,1.56H83.19v2.55h2.93a14.24,14.24,0,0,1-3.39,4.62h5.35a14.57,14.57,0,0,0,2.64-4.62"/><path class="cls-1" d="M119,17.28h5.22v5h5.61v-5H135v4.31h5.28V16.08a.88.88,0,0,0-.88-.89h-9.61v-.91h9.62V12.19H114.58v2.09h9.63v.91H114.6a.89.89,0,0,0-.89.89v5.51H119Z"/><path class="cls-1" d="M129.82,31.9h9.28A.89.89,0,0,0,140,31v-7.1a.89.89,0,0,0-.89-.89H114.92a.88.88,0,0,0-.88.89V31a.88.88,0,0,0,.88.89h9.29V33c0,1,.91,2.06,2.84,2.06h14.09V32.93H129.82Zm4.82-2.09h-4.82v-1.3h4.82Zm0-3.39h-4.82V25.11h4.82Zm-15.26-1.31h4.83v1.31h-4.83Zm0,3.4h4.83v1.3h-4.83Z"/><rect class="cls-1" x="119.51" y="20.41" width="4.17" height="1.18"/><rect class="cls-1" x="119.51" y="18.19" width="4.17" height="1.17"/><rect class="cls-1" x="130.34" y="20.41" width="4.18" height="1.18"/><rect class="cls-1" x="130.34" y="18.19" width="4.18" height="1.17"/><path class="cls-1" d="M200.22,24.46h4.05V22.37h-5V19h4.55V16.89h-4.55V11.8h-5.35v5.09h-2.1l1.64-5.09h-3.7l-1.57,4.85a3.08,3.08,0,0,0-.17,1A1.36,1.36,0,0,0,189.35,19h4.57v3.41h-5v2.09h4a13.7,13.7,0,0,1-4.07,4.7V25.83a16.43,16.43,0,0,1-4.11-6.4v-.26h2.88V17.08h-2.88V11.8h-5.35v5.28h-3.63v2.09h3.63v.63a18.78,18.78,0,0,1-3.65,6v6.64a16.87,16.87,0,0,0,3.65-4V35h5.35V27.46a17.2,17.2,0,0,0,3.52,3.91V35c1.26,0,4.48-3.3,5.61-4.64V35h5.35v-5.2a15.72,15.72,0,0,0,5,5.21V28.7a9.6,9.6,0,0,1-4.1-4.24"/><path class="cls-1" d="M218.18,26h3.93V23.55H208.93V26h3.9V32c-1.26,0-2.56.07-3.9.07v2.48a68.82,68.82,0,0,0,13.7-1.5v-2c-1.23.23-2.75.43-4.45.58Z"/><path class="cls-1" d="M228.27,19.17H234c1.4,0,1.62-1.3,1.62-2.09V12.3H230.3v4.78h-2.49a25.27,25.27,0,0,1-.47-4.76h-5.15a30.37,30.37,0,0,0,.4,4.76H208.48v2.09H223A46.65,46.65,0,0,0,229.88,35h6.92c-1.73-1.62-6.5-8.1-8.53-15.85"/><rect class="cls-1" x="239.29" y="20.22" width="27.46" height="2.09"/><path class="cls-1" d="M239.29,27.33h4.6l-3,4.86C240.22,33.3,240,35,242.08,35H264c2.06,0,1.87-1.72,1.18-2.83l-3-4.86h4.61V25.24H239.29Zm20.14,5.61H246.61L250,27.33h6Z"/><polygon class="cls-1" points="253.01 13.53 258.57 18.72 266.34 18.72 258.45 12.32 254.32 12.32 251.71 12.32 247.59 12.32 239.7 18.72 247.46 18.72 253.01 13.53"/><polygon class="cls-1" points="294.34 32.47 294.34 22.35 299.13 22.35 299.13 19.81 294.34 19.81 294.34 12.52 288.99 12.52 288.99 19.81 284.2 19.81 284.2 22.35 288.99 22.35 288.99 32.47 283.33 32.47 283.33 35.02 288.99 35.02 294.34 35.02 300 35.02 300 32.47 294.34 32.47"/><path class="cls-1" d="M284.76,28.38l-4.14-6.89,1.85-2.7c1.18-1.77.2-3-1.22-3h-1.52V12.52h-5.34v3.26h-4.24v2.54h6.65L269.5,29h4.89V35h5.34V25.44l1.76,2.94Z"/></svg>