<svg id="レイヤー_1" data-name="レイヤー 1" xmlns="http://www.w3.org/2000/svg" viewBox="0 0 180 30"><defs><style>.cls-1{fill:#fff;}</style></defs><title>leftnavi-logo-res</title><path class="cls-1" d="M2.19,15A13.38,13.38,0,1,1,15.57,28.39,13.38,13.38,0,0,1,2.19,15M15.57,26.46A11.46,11.46,0,1,0,4.12,15,11.45,11.45,0,0,0,15.57,26.46"/><path class="cls-1" d="M16.32,23.2a4.47,4.47,0,1,0,.91-7.36v4.47a4,4,0,0,1-.91,2.89"/><path class="cls-1" d="M23.6,16.82a4.46,4.46,0,1,0-6.55-5.2,4.55,4.55,0,0,0-.17,2.06l4.25,1.38a4,4,0,0,1,2.47,1.76"/><path class="cls-1" d="M19.78,7.92a4.4,4.4,0,0,0-1.72-2.59,4.46,4.46,0,1,0-5.24,7.22,4.34,4.34,0,0,0,1.9.79l2.63-3.61a4,4,0,0,1,2.43-1.81"/><path class="cls-1" d="M10.15,8.81a4.47,4.47,0,1,0,3.58,6.49l-2.62-3.62a4,4,0,0,1-1-2.87"/><path class="cls-1" d="M8,18.25a4.47,4.47,0,0,0,5.49,6,4.47,4.47,0,0,0,2.86-5.63,4.4,4.4,0,0,0-1.07-1.76L11,18.22a4,4,0,0,1-3,0"/><path class="cls-1" d="M95.86,13.31c3.19-2.14,5.09-3.32,5.09-4a.61.61,0,0,0-.61-.62H87.06V9.92h9a14.63,14.63,0,0,1-3.27,2.57v1.6H86.27v1.21h6.47v1.82A7.45,7.45,0,0,1,90.39,22h3.68a6.57,6.57,0,0,0,1.79-4.86V15.31h6.47V14.1H95.86Z"/><path class="cls-1" d="M47.67,8.93h-7a.52.52,0,0,0-.52.52v12a.52.52,0,0,0,.52.52h7a.52.52,0,0,0,.52-.52v-12a.52.52,0,0,0-.52-.52M45.07,20.4H43.25V10.53h1.82Z"/><path class="cls-1" d="M65.09,14H51.7a.52.52,0,0,0-.52.52v5.2a.52.52,0,0,0,.52.51h1.53a5.46,5.46,0,0,1-2,1.79H55a7,7,0,0,0,1.5-1.79h3.83A7,7,0,0,0,61.81,22h3.8a5.46,5.46,0,0,1-2-1.79h1.53a.51.51,0,0,0,.52-.51V14.5a.52.52,0,0,0-.52-.52M54.3,15.2h8.19v.53H54.3Zm0,1.63h8.19v.53H54.3Zm0,1.64h8.19V19H54.3Z"/><path class="cls-1" d="M65.51,8.93H59.22a.52.52,0,0,0-.52.52v3.33a.52.52,0,0,0,.52.52h6.29a.51.51,0,0,0,.51-.52V9.45a.51.51,0,0,0-.51-.52m-2.26,3.12H61.47V10.18h1.78Z"/><path class="cls-1" d="M39.09,10.45H36c0-.66,0-1.32,0-2H33.27c0,.66,0,1.32-.05,2h-2v1.48h2C32.77,16.76,31.7,21,30.65,22h3.11c.65-.76,1.74-5.19,2.13-10.06h.6V22h3.12V11a.52.52,0,0,0-.52-.52"/><path class="cls-1" d="M55,10.87h.47v2.69h2.66V9.9a.51.51,0,0,0-.52-.51H55.34a6.88,6.88,0,0,0,.06-.92H52.82a5.52,5.52,0,0,1-.08.92H50.61v1.48h1.71a8.45,8.45,0,0,1-2,2.69h3.11A8.59,8.59,0,0,0,55,10.87"/><path class="cls-1" d="M71.45,11.67h3V14.6h3.26V11.67h3v2.5h3.07V11a.51.51,0,0,0-.51-.52h-5.6V9.92h5.61V8.7H68.88V9.92h5.61v.53H68.9a.52.52,0,0,0-.52.52v3.2h3.07Z"/><path class="cls-1" d="M77.75,20.18h5.41a.52.52,0,0,0,.51-.52V15.53a.51.51,0,0,0-.51-.52H69.08a.51.51,0,0,0-.51.52v4.13a.52.52,0,0,0,.51.52h5.41v.61c0,.56.53,1.2,1.65,1.2h8.2V20.77H77.75ZM80.56,19H77.75V18.2h2.81Zm0-2H77.75v-.76h2.81Zm-8.88-.76h2.81V17H71.68Zm0,2h2.81V19H71.68Z"/><rect class="cls-1" x="71.76" y="13.49" width="2.43" height="0.68"/><rect class="cls-1" x="71.76" y="12.2" width="2.43" height="0.68"/><rect class="cls-1" x="78.06" y="13.49" width="2.43" height="0.68"/><rect class="cls-1" x="78.06" y="12.2" width="2.43" height="0.68"/><path class="cls-1" d="M118.73,15.84h2.36V14.63h-2.91v-2h2.64V11.44h-2.64v-3h-3.12v3h-1.22l1-3h-2.16l-.91,2.83a1.63,1.63,0,0,0-.1.56.78.78,0,0,0,.78.78h2.65v2h-2.89v1.21h2.34a7.92,7.92,0,0,1-2.37,2.74V16.64a9.55,9.55,0,0,1-2.39-3.73v-.14h1.68V11.55h-1.68V8.47h-3.11v3.08h-2.12v1.22h2.12v.36a10.87,10.87,0,0,1-2.13,3.51v3.87a10.05,10.05,0,0,0,2.13-2.35V22h3.11V17.59a10,10,0,0,0,2,2.28V22c.73,0,2.6-1.92,3.26-2.7V22h3.12V19a9.09,9.09,0,0,0,2.94,3V18.31a5.51,5.51,0,0,1-2.39-2.47"/><path class="cls-1" d="M129.18,16.76h2.29V15.31H123.8v1.45h2.27v3.45c-.73,0-1.49,0-2.27,0v1.44a39.94,39.94,0,0,0,8-.87V19.68c-.71.13-1.59.25-2.59.34Z"/><path class="cls-1" d="M135.06,12.77h3.35c.81,0,.94-.76.94-1.22V8.77h-3.11v2.78h-1.45a14.3,14.3,0,0,1-.28-2.77h-3a17.07,17.07,0,0,0,.23,2.77h-8.21v1.22H132A27.26,27.26,0,0,0,136,22h4a22.76,22.76,0,0,1-5-9.22"/><rect class="cls-1" x="141.47" y="13.37" width="15.98" height="1.22"/><path class="cls-1" d="M141.47,17.52h2.68l-1.74,2.83c-.4.64-.51,1.64.69,1.64h12.72c1.2,0,1.09-1,.69-1.64l-1.74-2.83h2.68V16.3h-16Zm11.72,3.26h-7.46l2-3.26h3.48Z"/><polygon class="cls-1" points="149.46 9.48 152.69 12.5 157.21 12.5 152.62 8.78 150.22 8.78 148.7 8.78 146.3 8.78 141.71 12.5 146.22 12.5 149.46 9.48"/><polygon class="cls-1" points="173.51 20.51 173.51 14.62 176.3 14.62 176.3 13.14 173.51 13.14 173.51 8.9 170.4 8.9 170.4 13.14 167.61 13.14 167.61 14.62 170.4 14.62 170.4 20.51 167.11 20.51 167.11 21.99 170.4 21.99 173.51 21.99 176.81 21.99 176.81 20.51 173.51 20.51"/><path class="cls-1" d="M167.93,18.12l-2.4-4,1.07-1.57c.69-1,.12-1.75-.71-1.75H165V8.9H161.9v1.89h-2.47v1.48h3.87l-4.25,6.18h2.85V22H165V16.42l1,1.7Z"/></svg>