<svg xmlns="http://www.w3.org/2000/svg" width="180" height="70" viewBox="0 0 180 70">
  <title>leftnavi-logo</title>
  <g>
    <g>
      <path d="M2.19,51.71A13.38,13.38,0,1,1,15.57,65.1,13.39,13.39,0,0,1,2.19,51.71M15.57,63.17A11.46,11.46,0,1,0,4.12,51.71,11.45,11.45,0,0,0,15.57,63.17" style="fill: #fff"/>
      <path d="M16.32,59.91a4.46,4.46,0,1,0,2.92-7.84,4.54,4.54,0,0,0-2,.48V57a4,4,0,0,1-.91,2.89" style="fill: #fff"/>
      <path d="M23.6,53.53a4.46,4.46,0,1,0-6.55-5.2,4.55,4.55,0,0,0-.17,2.06l4.25,1.38a4,4,0,0,1,2.47,1.76" style="fill: #fff"/>
      <path d="M19.78,44.63a4.46,4.46,0,1,0-7,4.63,4.48,4.48,0,0,0,1.9.8l2.63-3.62a4,4,0,0,1,2.43-1.81" style="fill: #fff"/>
      <path d="M10.15,45.52A4.47,4.47,0,1,0,13.73,52l-2.62-3.62a4,4,0,0,1-1-2.87" style="fill: #fff"/>
      <path d="M8,55a4.46,4.46,0,1,0,8.35.36,4.37,4.37,0,0,0-1.07-1.77L11,54.94a4,4,0,0,1-3,0" style="fill: #fff"/>
      <path d="M95.86,50c3.19-2.14,5.09-3.31,5.09-4a.61.61,0,0,0-.61-.62H87.06v1.22h9a14.63,14.63,0,0,1-3.27,2.57v1.6H86.27V52h6.47v1.83a7.43,7.43,0,0,1-2.35,4.85h3.68a6.54,6.54,0,0,0,1.79-4.85V52h6.47V50.81H95.86Z" style="fill: #fff"/>
      <path d="M47.67,45.64h-7a.52.52,0,0,0-.52.52v12a.52.52,0,0,0,.52.52h7a.52.52,0,0,0,.52-.52v-12a.52.52,0,0,0-.52-.52m-2.6,11.48H43.25V47.24h1.82Z" style="fill: #fff"/>
      <path d="M65.09,50.69H51.7a.52.52,0,0,0-.52.52v5.2a.52.52,0,0,0,.52.51h1.53a5.46,5.46,0,0,1-2,1.79H55a7,7,0,0,0,1.5-1.79h3.83a7,7,0,0,0,1.5,1.79h3.8a5.46,5.46,0,0,1-2-1.79h1.53a.51.51,0,0,0,.52-.51v-5.2a.52.52,0,0,0-.52-.52M54.3,51.91h8.19v.53H54.3Zm0,1.63h8.19v.54H54.3Zm0,1.64h8.19v.53H54.3Z" style="fill: #fff"/>
      <path d="M65.51,45.64H59.22a.52.52,0,0,0-.52.52v3.33a.52.52,0,0,0,.52.52h6.29a.51.51,0,0,0,.51-.52V46.16a.51.51,0,0,0-.51-.52m-2.26,3.12H61.47V46.9h1.78Z" style="fill: #fff"/>
      <path d="M39.09,47.16H36c0-.66,0-1.32,0-2H33.27c0,.66,0,1.32-.05,2h-2v1.48h2c-.36,4.83-1.43,9.08-2.48,10.06h3.11c.65-.76,1.74-5.19,2.13-10.06h.6V58.71h3.12v-11a.52.52,0,0,0-.52-.52" style="fill: #fff"/>
      <path d="M55,47.58h.47v2.7h2.66V46.62a.52.52,0,0,0-.52-.52H55.34a6.73,6.73,0,0,0,.06-.91H52.82a5.4,5.4,0,0,1-.08.91H50.61v1.48h1.71a8.45,8.45,0,0,1-2,2.69h3.11A8.59,8.59,0,0,0,55,47.58" style="fill: #fff"/>
      <path d="M71.45,48.38h3v2.93h3.26V48.38h3v2.5h3.07v-3.2a.51.51,0,0,0-.51-.52h-5.6v-.53h5.61V45.41H68.88v1.22h5.61v.53H68.9a.52.52,0,0,0-.52.52v3.2h3.07Z" style="fill: #fff"/>
      <path d="M77.75,56.89h5.41a.51.51,0,0,0,.51-.52V52.24a.51.51,0,0,0-.51-.52H69.08a.51.51,0,0,0-.51.52v4.13a.51.51,0,0,0,.51.52h5.41v.61c0,.57.53,1.2,1.65,1.2h8.2V57.49H77.75Zm2.81-1.22H77.75v-.76h2.81Zm0-2H77.75v-.76h2.81Zm-8.88-.76h2.81v.76H71.68Zm0,2h2.81v.76H71.68Z" style="fill: #fff"/>
      <rect x="71.76" y="50.2" width="2.43" height="0.68" style="fill: #fff"/>
      <rect x="71.76" y="48.91" width="2.43" height="0.68" style="fill: #fff"/>
      <rect x="78.06" y="50.2" width="2.43" height="0.68" style="fill: #fff"/>
      <rect x="78.06" y="48.91" width="2.43" height="0.68" style="fill: #fff"/>
      <path d="M118.73,52.56h2.36V51.34h-2.91v-2h2.64V48.15h-2.64v-3h-3.12v3h-1.22l1-3h-2.16L111.73,48a1.63,1.63,0,0,0-.1.56.79.79,0,0,0,.78.79h2.65v2h-2.89v1.22h2.34a7.87,7.87,0,0,1-2.37,2.73V53.35a9.57,9.57,0,0,1-2.39-3.72v-.15h1.68V48.26h-1.68V45.19h-3.11v3.07h-2.12v1.22h2.12v.36a10.87,10.87,0,0,1-2.13,3.51v3.87a10.2,10.2,0,0,0,2.13-2.34V58.7h3.11V54.3a10,10,0,0,0,2,2.28V58.7c.73,0,2.6-1.92,3.26-2.7v2.7h3.12v-3a9.09,9.09,0,0,0,2.94,3V55a5.61,5.61,0,0,1-2.39-2.47" style="fill: #fff"/>
      <path d="M129.18,53.47h2.29V52H123.8v1.45h2.27v3.45c-.73,0-1.49,0-2.27,0V58.4a39.94,39.94,0,0,0,8-.87V56.39c-.71.13-1.59.25-2.59.34Z" style="fill: #fff"/>
      <path d="M135.06,49.48h3.35c.81,0,.94-.76.94-1.22V45.48h-3.11v2.78h-1.45a14.3,14.3,0,0,1-.28-2.77h-3a17.07,17.07,0,0,0,.23,2.77h-8.21v1.22H132a27.16,27.16,0,0,0,4,9.22h4a22.76,22.76,0,0,1-5-9.22" style="fill: #fff"/>
      <rect x="141.47" y="50.09" width="15.98" height="1.22" style="fill: #fff"/>
      <path d="M141.47,54.23h2.68l-1.74,2.83c-.4.64-.51,1.64.69,1.64h12.72c1.2,0,1.09-1,.69-1.64l-1.74-2.83h2.68V53h-16Zm11.72,3.27h-7.46l2-3.27h3.48Z" style="fill: #fff"/>
      <polygon points="149.46 46.2 152.69 49.21 157.21 49.21 152.62 45.49 150.22 45.49 148.7 45.49 146.3 45.49 141.71 49.21 146.22 49.21 149.46 46.2" style="fill: #fff"/>
      <polygon points="173.51 57.22 173.51 51.33 176.3 51.33 176.3 49.85 173.51 49.85 173.51 45.61 170.4 45.61 170.4 49.85 167.61 49.85 167.61 51.33 170.4 51.33 170.4 57.22 167.11 57.22 167.11 58.7 170.4 58.7 173.51 58.7 176.81 58.7 176.81 57.22 173.51 57.22" style="fill: #fff"/>
      <path d="M167.93,54.84l-2.4-4,1.07-1.57c.69-1,.12-1.76-.71-1.76H165V45.61H161.9V47.5h-2.47V49h3.87l-4.25,6.18h2.85V58.7H165V53.13l1,1.71Z" style="fill: #fff"/>
    </g>
    <g>
      <path d="M11.41,7.86a15.69,15.69,0,0,0-1.57.06c0,.27-.08,1.46-.09,1.71a4.21,4.21,0,0,1,.54,2,6.59,6.59,0,0,1-2,4.53l-1.4-.57a3.49,3.49,0,0,0,1.17-.87,3.57,3.57,0,0,0,.79-1.58,1.51,1.51,0,0,1-.94.31,1.88,1.88,0,0,1-1.73-2.05,2.2,2.2,0,0,1,2-2.35c.22,0,.49,0,.58,0,0-.33,0-.4,0-1.11a42,42,0,0,0-4.94.43L3.64,7.15c.34,0,.42,0,.79,0s2.39-.08,2.79-.09l1.47,0a11.64,11.64,0,0,0-.15-2l1.32.06c.19,0,.47,0,.47.21a.22.22,0,0,1-.13.17l-.24.2A7.31,7.31,0,0,0,9.87,7a26.07,26.07,0,0,0,3.8-.31l.05,1.26C12.62,7.86,11.68,7.86,11.41,7.86ZM8.16,10.15c-.52,0-.88.58-.88,1.27s.49,1.05.74,1.05c.79,0,.91-.81.91-1.22C8.93,10.54,8.56,10.15,8.16,10.15Z" style="fill: #fff"/>
      <path d="M28.21,14.14c-.26-.28-1.47-1.44-1.7-1.69-1.09-1.15-1.42-1.54-3.14-3.58-.26-.32-.41-.48-.71-.48s-.4.07-1,.78a28.79,28.79,0,0,0-1.86,2.61.89.89,0,0,1,.13.33.17.17,0,0,1-.17.18.52.52,0,0,1-.28-.13l-1.09-.84A39.4,39.4,0,0,0,21.33,8c.6-.74.91-.9,1.42-.9s1,.39,2.29,2c.64.75,1.1,1.23,1.58,1.72a17.25,17.25,0,0,0,2.59,2.24Zm-.79-5.8A8.23,8.23,0,0,0,26.2,7l.68-.54A14.87,14.87,0,0,1,28.1,7.67Zm1.42-1.29a11.16,11.16,0,0,0-1.2-1.18l.61-.63a4.31,4.31,0,0,1,1.14,1.23Z" style="fill: #fff"/>
      <path d="M39.25,10.46A3.71,3.71,0,0,0,39,11.8c0,1.41,1.38,2.17,2.29,2.44a4,4,0,0,0,1.28.15l-.38,1.31a6,6,0,0,1-3.39-1.5,3.27,3.27,0,0,1-1-2.39A5.11,5.11,0,0,1,38.81,9a7.26,7.26,0,0,1,1.92-1.79,36.38,36.38,0,0,0-5.85.92l-.16-1.4a32.79,32.79,0,0,0,4.75-.33,39.32,39.32,0,0,0,4.85-.84V6.88A6,6,0,0,0,39.25,10.46Z" style="fill: #fff"/>
      <path d="M51.61,6.56a14.62,14.62,0,0,0-1,5.08,9,9,0,0,0,.17,1.75,4.42,4.42,0,0,0,.33-.84c.15-.52.18-.56.23-.73l.61.55a20.48,20.48,0,0,0-.84,2.91l-1,.16a14.77,14.77,0,0,1-.54-4,17.93,17.93,0,0,1,.43-3.7c.16-.88.28-1.41.41-2L51.84,6a.18.18,0,0,1,.17.17C52,6.34,52,6.35,51.61,6.56Zm7.13,8a4.53,4.53,0,0,0-1.68-1.06c.14,1.42-1,1.8-1.94,1.8-1.4,0-2.36-.66-2.36-1.6a1.5,1.5,0,0,1,1-1.33,5.82,5.82,0,0,1,1.78-.27l.38,0a30.57,30.57,0,0,1-.1-3.3,15,15,0,0,1-1.67.11,7.46,7.46,0,0,1-1,0V7.81A7.34,7.34,0,0,0,54.65,8a10,10,0,0,0,1.17-.09c0-.21,0-1.42,0-1.73s0-.28,0-.49l1.5.16a.17.17,0,0,1,.19.17c0,.11,0,.14-.34.32A6.19,6.19,0,0,0,57,7.69a7.5,7.5,0,0,0,1.54-.44v1a10.52,10.52,0,0,1-1.6.41c0,.11,0,.94,0,1,0,.87,0,1.8.12,2.67a6.29,6.29,0,0,1,2.2,1.08Zm-3.6-1.48c-.78,0-1.24.24-1.24.58s.44.61,1,.61a1,1,0,0,0,.92-.47,1.47,1.47,0,0,0,.05-.65A4.31,4.31,0,0,0,55.14,13.09Z" style="fill: #fff"/>
      <path d="M71.78,15.54a2,2,0,0,1-2-1.52l.91-.64c.11.42.27,1.06,1.08,1.06a1.44,1.44,0,0,0,1.31-1.55,1.67,1.67,0,0,0-1.86-1.69,5,5,0,0,0-2.31.71c0,.3,0,2.21,0,2.29,0,.52,0,1.3-.63,1.3A1.49,1.49,0,0,1,67.17,15c-.33-.32-.89-.88-1.21-1.16a.53.53,0,0,0-.28.4.09.09,0,0,1-.08.08s-.14-.11-.14-.12l-.87-1a16.83,16.83,0,0,0,2.16-1.2c.69-.44.75-.47,1.1-.66V9.19a16,16,0,0,1-2.13.07l-.2-1.17a9.23,9.23,0,0,0,1.33.11,9.25,9.25,0,0,0,1-.07c0-.31,0-1.63,0-1.9s0-.52,0-.74L69,5.75c.17,0,.41.08.41.27s0,.12-.34.33c0,.42-.05.54-.09,1.55a7.16,7.16,0,0,0,2.28-.71V8.37A9.59,9.59,0,0,1,68.91,9v1.76a7.38,7.38,0,0,1,2.48-.57,2.58,2.58,0,0,1,2.88,2.58A2.62,2.62,0,0,1,71.78,15.54Zm-4-3c-.19.11-.94.59-1.36.91a6.53,6.53,0,0,0,1.17.75c.18,0,.18-.09.18-.24V12.54Zm6.48-2.38a6.94,6.94,0,0,0-2.49-1.77l.79-.86A16.91,16.91,0,0,1,75,9.22Z" style="fill: #fff"/>
      <path d="M91,13.23a7.35,7.35,0,0,1-1.79-.41v2.32a6.12,6.12,0,0,0,.11.95H88c0-.1,0-.32,0-.43H84c0,.05,0,.3,0,.44H82.77a7.23,7.23,0,0,0,.12-1v-2a13.11,13.11,0,0,1-1.62.3l-.79-1.09a8.52,8.52,0,0,0,4.86-1.4,10.84,10.84,0,0,1-1.2-1.17,7.82,7.82,0,0,1-2,1.11l-.89-1a4.72,4.72,0,0,0,2.56-1.23A5.73,5.73,0,0,0,85,7.15H82A12,12,0,0,0,82,8.78H80.81a9.25,9.25,0,0,0,.09-1.36c0-.5,0-1-.05-1.28,1,.06,2.39.09,3.38.09h1.21A10.5,10.5,0,0,0,85.35,5l1.38.12c.21,0,.26.07.26.17s0,.15-.38.34c0,.38,0,.43,0,.64h1c.26,0,2.33,0,3.68-.14a7.15,7.15,0,0,0-.07.93c0,.51,0,1.09.08,1.71H90c0-.37.09-1,.1-1.58h-4.5l.82.41a.17.17,0,0,1,.1.16c0,.22-.22.22-.49.21l-.21.22h1.29c.41,0,.67,0,1.47-.05l.37.51A9.27,9.27,0,0,1,87,10.79,8.13,8.13,0,0,0,91.61,12Zm-2.9.11H84v1.47h4.06Zm-1.89-1.86a8.36,8.36,0,0,1-1.61.94H88A7.9,7.9,0,0,1,86.16,11.48ZM85,9a4.14,4.14,0,0,0,1.14,1.16,5.41,5.41,0,0,0,1-1.16Z" style="fill: #fff"/>
      <path d="M107.49,15.67a6.5,6.5,0,0,1-2.45-1.8c0,.78,0,.87,0,1.06,0,.41,0,.88-.44,1.05a4.53,4.53,0,0,1-1.43.22L102.68,15a3.53,3.53,0,0,0,.52,0c.28,0,.58,0,.63-.16a3.1,3.1,0,0,0,0-.49v-3h-.46c-.67,0-1.56,0-2.2.07v-.61l-.65,1a7.17,7.17,0,0,1-.78-.77v1.45c0,1.39,0,3,.08,3.64H98.64c.07-1.9.08-2.44.08-3.57v-.77a8.66,8.66,0,0,1-1.25,1.86l-1-.83a6.5,6.5,0,0,0,2.18-4.18h-.29a10.42,10.42,0,0,0-1.38.1V7.61a13.25,13.25,0,0,0,1.38.1h.4c0-.75-.06-2.56-.06-2.76l1.37.11a.15.15,0,0,1,.14.16c0,.14-.13.22-.35.34,0,1.75,0,1.9,0,2.15a12.56,12.56,0,0,0,1.32-.1V8.8a9.62,9.62,0,0,0-1.32-.11v.53a4.7,4.7,0,0,0,1.43,1.59v-.46c.94.09,2.17.09,2.2.09h.46V9.53h-.3a13.71,13.71,0,0,0-1.82.08V8.51a14.91,14.91,0,0,0,1.82.1h.3v-1h-.41a17.06,17.06,0,0,0-2,.08V6.61c.57.06,1.07.09,1.56.1a6.21,6.21,0,0,0-1-1.11l.89-.7A7.75,7.75,0,0,1,104,6.29l-.55.42h2l-.62-.35a7.11,7.11,0,0,0,.86-1.46l1.16.6a.2.2,0,0,1,.1.14c0,.21-.15.19-.37.18s-.11.16-.42.59a3.4,3.4,0,0,1-.23.3c.55,0,1.09,0,1.64-.1v1.1a17.48,17.48,0,0,0-2-.08h-.59v1h.48a15.91,15.91,0,0,0,1.83-.1v1.1a14.16,14.16,0,0,0-1.83-.08h-.48v.91h.69c.73,0,1.47,0,2.2-.09v1.09c-.67-.07-1.58-.07-2.2-.07h-.68c0,.15,0,.2,0,.64a5.22,5.22,0,0,0,.59.85,5.35,5.35,0,0,0,1.36-1.33l.85.65a.26.26,0,0,1,.12.19.16.16,0,0,1-.18.15l-.19,0a5.87,5.87,0,0,1-1.23,1.08,5.49,5.49,0,0,0,1.92,1Zm-5-.85-.74.46a1.5,1.5,0,0,1-.23.13c0,.13,0,.36-.21.36,0,0-.1,0-.16-.12l-.53-1.06a9.28,9.28,0,0,0,1.51-.71l1.29-.72.07,1C103.36,14.25,102.67,14.74,102.52,14.82Zm0-1.44a5,5,0,0,0-1.32-.91l.7-.87a9.66,9.66,0,0,1,1.34.94Z" style="fill: #fff"/>
      <path d="M120.07,15.31l-.93-1a5.09,5.09,0,0,0,2.73-1.42,4.4,4.4,0,0,0,.94-2.76,3.18,3.18,0,0,0-1.91-2.88,3.24,3.24,0,0,0-1.69-.36,21,21,0,0,1-1.54,6c-.24.5-.85,1.84-1.55,1.84a1.65,1.65,0,0,1-1.05-.42A4.28,4.28,0,0,1,113.56,11a4.86,4.86,0,0,1,1.35-3.39,5.22,5.22,0,0,1,4-1.74,5,5,0,0,1,3.87,1.54,4.36,4.36,0,0,1,1.11,3A5,5,0,0,1,120.07,15.31ZM117.77,7A4.07,4.07,0,0,0,114.66,11c0,1.1.68,2.26,1.2,2.26s.75-.74.9-1.08A18,18,0,0,0,118.09,7Z" style="fill: #fff"/>
      <path d="M135.25,8.34a15.66,15.66,0,0,1-2.33.5c-.18.51-.91,2.76-1.08,3.21-.6,1.6-1.08,2.64-1.51,3.55l-1.27-.46A19.88,19.88,0,0,0,131.67,9a6.59,6.59,0,0,1-1.17.09c-.4,0-.68,0-1-.05V7.9a10.24,10.24,0,0,0,1.39.12,6.72,6.72,0,0,0,1.05-.09,19.62,19.62,0,0,0,.41-2.65l1.42.21c.21,0,.3.06.3.22s-.09.21-.39.27c-.22.78-.27,1-.47,1.8a6.81,6.81,0,0,0,2.12-.63Zm2.94,7.17c-.48,0-.9,0-1.22,0-2.51,0-3-.19-3.36-.44a.9.9,0,0,1-.45-.72,2.74,2.74,0,0,1,.84-1.67l.91.46c-.27.26-.63.62-.63.87,0,.51,1.58.51,2,.51a6.31,6.31,0,0,0,2.08-.21Zm.24-5a5,5,0,0,0-1.74-.21,9.86,9.86,0,0,0-2.17.19l.07-1c.41,0,1-.07,1.86-.07s1.41,0,2,.07Z" style="fill: #fff"/>
      <path d="M152.32,14.51a7.35,7.35,0,0,1-2.86,1.27l-.69-1.13c2.67-.22,3.88-1.88,3.88-3.44a2.66,2.66,0,0,0-2.55-2.74,15.27,15.27,0,0,1-1.54,3.79,8.53,8.53,0,0,0,.7.92l-.83.88c-.16-.23-.32-.42-.58-.8a5.84,5.84,0,0,1-1.46,1.29,1.53,1.53,0,0,1-.82.22c-1.23,0-1.55-1.18-1.55-2.08a5.33,5.33,0,0,1,1.79-3.86,15,15,0,0,1-.52-2.44l1.17-.4a7,7,0,0,0,.26,2.19,5.34,5.34,0,0,1,2.42-.71c0-.17,0-.27.11-1.11,0-.32,0-.63.06-1l1.45.37a.14.14,0,0,1,.1.13c0,.12-.21.31-.28.37a5.93,5.93,0,0,0-.26,1.24,3.55,3.55,0,0,1,1.39.41,3.94,3.94,0,0,1,2.09,3.48A4,4,0,0,1,152.32,14.51Zm-6.14-4.58a3.62,3.62,0,0,0-1.05,2.5c0,1.06.31,1.18.6,1.18.46,0,1.15-.81,1.54-1.3A18,18,0,0,1,146.18,9.93ZM147,9.2a12.27,12.27,0,0,0,.93,2.06,8.11,8.11,0,0,0,1-2.76A3.62,3.62,0,0,0,147,9.2Z" style="fill: #fff"/>
      <path d="M161,15.14l-.8.22a11.3,11.3,0,0,1-.95-4.45,20.1,20.1,0,0,1,.22-2.6c.1-.53.41-2.19.5-2.6l1.25.38c.2.06.3.1.3.22s-.19.26-.38.36a11.09,11.09,0,0,0-.79,4.27,6.65,6.65,0,0,0,.24,2c.24-.61.37-1,.68-1.63l.45.81A11.25,11.25,0,0,0,161,15.14Zm7.57-.73a18.6,18.6,0,0,1-2.59.2c-1,0-3.38,0-3.19-2.77l1.1.11c-.12,1.39.92,1.54,2,1.54a11.68,11.68,0,0,0,2.81-.41ZM164,7.94a7.2,7.2,0,0,1-.73,0l0-1.19a8.55,8.55,0,0,0,1.5.13,9.2,9.2,0,0,0,3.38-.59v1.2A18.47,18.47,0,0,1,164,7.94Z" style="fill: #fff"/>
      <path d="M176,16h0a1.84,1.84,0,1,1,1.8-1.83A1.82,1.82,0,0,1,176,16Zm0-3.12a1.28,1.28,0,1,0,1.25,1.28A1.27,1.27,0,0,0,176,12.85Z" style="fill: #fff"/>
    </g>
  </g>
</svg>
