<svg xmlns="http://www.w3.org/2000/svg" width="500" height="180" viewBox="0 0 500 180">
  <title>main-logo</title>
  <g>
    <g>
      <polygon points="111.47 1 86.5 1 24.34 58.1 23.89 58.1 23.89 1 1 1 1 127.14 23.89 127.14 23.89 62.51 24.34 64.36 84.33 127.14 111.47 127.14 49.43 61.34 111.47 1" style="fill: #fff"/>
      <path d="M122.12,127.14h22.45L157.48,94.2h62.3l13.33,32.94H254L203.4,1H176.13ZM190.71,21.55l22.57,58.24H163.54l23.57-58.24Z" style="fill: #fff"/>
      <path d="M360.23,120.67V58H300.77V72.38H338v39.81c-7,1.39-13,1.18-18.59,1.18-12.42,0-49.93,7-49.93-45.83,0-51.07,25.67-47.89,44.92-47.89,17.81,0,45.29.17,45.29.17l.58-13.1c0-3.11-10.9-2.19-43.87-2.19-55,0-69,29.83-69,61.61,0,47.87,20.35,63.08,76.92,63.08C337.63,129.22,360.23,130.88,360.23,120.67Z" style="fill: #fff"/>
      <path d="M389.58,127.14,402.51,94.2h62.28l13.32,32.94H499L448.41,1H421.14l-54,126.14Zm19-47.35,23.56-58.24h3.61L458.3,79.79Z" style="fill: #fff"/>
    </g>
    <g>
      <polygon points="24.47 141.01 19.16 141.01 5.96 153.14 5.86 153.14 5.86 141.01 1 141.01 1 167.81 5.86 167.81 5.86 154.08 5.96 154.47 18.7 167.81 24.47 167.81 11.29 153.83 24.47 141.01" style="fill: #fff"/>
      <path d="M38.2,141l-11.47,26.8h4.76l2.75-7H47.47l2.83,7h4.44L44,141Zm3.1,4.37,4.79,12.37H35.53l5-12.37Z" style="fill: #fff"/>
      <path d="M77.31,166.43V153.12H64.68v3.06h7.9v8.45a18.64,18.64,0,0,1-4,.25C66,164.88,58,166.36,58,155.15,58,144.3,63.47,145,67.56,145c3.79,0,9.62,0,9.62,0l.13-2.78c0-.66-2.32-.47-9.32-.47-11.68,0-14.66,6.34-14.66,13.09,0,10.17,4.32,13.4,16.34,13.4C72.5,168.25,77.31,168.6,77.31,166.43Z" style="fill: #fff"/>
      <path d="M90.24,141l-11.47,26.8h4.77l2.75-7H99.52l2.83,7h4.43L96,141Zm3.1,4.37,4.8,12.37H87.57l5-12.37Z" style="fill: #fff"/>
      <path d="M137.49,141.41h-11c-3.71,0-11,2.63-11,13.94,0,8.26,4.9,12.46,11.27,12.46h10v-3.06h-10c-4.41,0-6.44-4.32-6.44-8.89H137v-2.93H120.7c0-5.6,2.23-8.2,6.1-8.2h10.69Z" style="fill: #fff"/>
      <path d="M156.36,168.07v-3H149a5.5,5.5,0,0,1-3.82-1.4,5.15,5.15,0,0,1-1.6-4.09V141.28h-5v16.85c0,2.34.68,5.51,2.55,7.36a10,10,0,0,0,6.73,2.58Z" style="fill: #fff"/>
      <path d="M176.93,141.41h-11c-3.72,0-11,2.63-11,13.94,0,8.26,4.89,12.46,11.27,12.46h10v-3.06h-10c-4.42,0-6.44-4.32-6.44-8.89h16.63v-2.93H160.14c0-5.6,2.22-8.2,6.1-8.2h10.69Z" style="fill: #fff"/>
      <path d="M190.45,164.75c-5.31,0-7.78-4.73-7.78-10.36,0-7.19,3.51-9.85,7.38-9.85h9.88v-3.13H189.34c-4.25,0-11.46,1.57-11.46,13.94,0,8.26,5.36,12.46,11.73,12.46h10v-3.06Z" style="fill: #fff"/>
      <polygon points="226 141.21 202.49 141.21 202.49 144.47 211.99 144.47 211.99 167.81 216.58 167.81 216.58 144.47 226 144.47 226 141.21" style="fill: #fff"/>
      <path d="M245.83,155.47v-.08c3.92-.5,5.6-4.92,5.6-7.36,0-4.39-4-7-8.53-7H227.69v26.8h4.87v-11.7H238c5.31,0,8,3.51,8,7.23,0,2.8-.19,2.83.76,4.47h4.12a32.31,32.31,0,0,1-.47-5.68C250.42,158.5,246.93,155.81,245.83,155.47Zm-13.27-2.68v-8.85h10.27c2.27,0,3.65,2.16,3.65,4.72,0,1.71-.81,4.13-3.65,4.13Z" style="fill: #fff"/>
      <path d="M252.12,154.41c0,7.9,3.35,13.84,13.52,13.84,9.82,0,13.53-6.12,13.53-13.84s-3.36-13.84-13.53-13.84C257.26,140.57,252.12,145.2,252.12,154.41Zm22.15.4c0,7.13-2.82,10.63-8.63,10.63-5.09,0-8.63-1.91-8.63-10.63,0-8.36,3-10.9,8.63-10.9C271.09,143.91,274.27,146.27,274.27,154.81Z" style="fill: #fff"/>
      <polygon points="305.55 167.81 305.55 141.01 300.89 141.01 300.89 160.82 300.66 161.42 286.88 141.01 281.46 141.01 281.46 167.81 285.64 167.81 285.64 147.75 285.74 146.96 300.42 167.81 305.55 167.81" style="fill: #fff"/>
      <rect x="307.66" y="141.01" width="4.33" height="26.79" style="fill: #fff"/>
      <path d="M335.52,167.81v-3.06h-9.19c-5.31,0-7.78-4.73-7.78-10.36,0-7.19,3.51-9.85,7.38-9.85H336v-3.13H325.22c-4.25,0-11.46,1.57-11.46,13.94,0,8.26,5.36,12.46,11.73,12.46Z" style="fill: #fff"/>
      <path d="M349.19,167.82c5.44,0,11.32-.52,11.32-7.46,0-4.83-3-8.11-10.69-8.08-4.63,0-8.32,0-8.32-3.85,0-2.92,2.08-4.38,6.37-4.38H359.1v-2.82s-6.41,0-13.86,0c-2.63,0-8.24.75-8.24,8.13,0,4.63,3.49,6.71,10.11,6.71,4.24,0,8.83-.67,8.83,4.4,0,3-2.78,4.2-6.75,4.2H337.79v3.14Z" style="fill: #fff"/>
      <path d="M393.56,141.41H383c-4.26,0-11.47,1.57-11.47,13.94,0,8.26,5.36,12.46,11.73,12.46h10v-3.06h-9.2c-5.31,0-7.78-4.73-7.78-10.36,0-7.19,3.51-9.85,7.38-9.85h9.82Z" style="fill: #fff"/>
      <path d="M392.69,154.41c0,7.9,3.36,13.84,13.53,13.84,9.81,0,13.52-6.12,13.52-13.84s-3.36-13.84-13.52-13.84C397.84,140.57,392.69,145.2,392.69,154.41Zm22.16.4c0,7.13-2.82,10.63-8.63,10.63-5.1,0-8.64-1.91-8.64-10.63,0-8.36,3-10.9,8.64-10.9C411.67,143.91,414.85,146.27,414.85,154.81Z" style="fill: #fff"/>
      <path d="M443.24,165.08a5.45,5.45,0,0,1-3.81-1.4,5.13,5.13,0,0,1-1.61-4.09V141.28h-5v16.85c0,2.34.68,5.51,2.55,7.36a10.05,10.05,0,0,0,6.73,2.58h8.55v-3Z" style="fill: #fff"/>
      <polygon points="467.18 144.47 467.18 141.21 443.67 141.21 443.67 144.47 453.16 144.47 453.16 167.81 457.76 167.81 457.76 144.47 467.18 144.47" style="fill: #fff"/>
      <rect x="419.85" y="162.91" width="3.73" height="3.77" style="fill: #fff"/>
      <polygon points="430.02 162.91 425.73 162.91 425.73 166.57 427.42 166.57 425.77 171.84 427.06 171.84 430.04 165.95 430.02 162.91" style="fill: #fff"/>
      <path d="M481.4,167.81c12.21,0,13.42-9.43,13.42-13.55,0-8.35-3.77-13.25-13.13-13.25H469.77v26.8Zm-7-3.53V143.94h6.24c7.69,0,9.39,3.42,9.39,10.47,0,7.6-2.33,9.87-9.63,9.87Z" style="fill: #fff"/>
      <rect x="494.87" y="163.64" width="4.13" height="4.17" style="fill: #fff"/>
    </g>
  </g>
</svg>
